<svg width="12" height="10" viewBox="0 0 12 10" fill="none" xmlns="http://www.w3.org/2000/svg">
<path d="M1.71947 5.00006C1.53181 4.8313 1.28729 4.73973 1.03494 4.74373C0.782594 4.74773 0.541091 4.84699 0.358876 5.02162C0.176662 5.19624 0.0672143 5.4333 0.0524866 5.68525C0.037759 5.9372 0.118841 6.1854 0.279469 6.38006L2.49947 8.71006C2.59242 8.80756 2.7041 8.88528 2.82783 8.93855C2.95155 8.99182 3.08476 9.01955 3.21947 9.02006C3.35346 9.02084 3.48624 8.99469 3.60992 8.94315C3.73361 8.89162 3.84568 8.81575 3.93947 8.72006L10.7195 1.72006C10.8114 1.62551 10.8838 1.51378 10.9325 1.39124C10.9813 1.26871 11.0054 1.13778 11.0036 1.00592C11.0017 0.874059 10.9739 0.743857 10.9217 0.622745C10.8695 0.501634 10.794 0.391986 10.6995 0.300061C10.6049 0.208135 10.4932 0.135733 10.3707 0.0869889C10.2481 0.0382443 10.1172 0.0141116 9.98533 0.0159687C9.85347 0.0178259 9.72327 0.0456365 9.60215 0.0978126C9.48104 0.149989 9.3714 0.225509 9.27947 0.320061L3.22947 6.58006L1.71947 5.00006Z" fill="white"/>
</svg>
